<svg width="34" height="38" viewBox="0 0 34 38" fill="none" xmlns="http://www.w3.org/2000/svg">
<g clip-path="url(#clip0)">
<path d="M20.3714 15.716C19.2852 15.716 18.4267 16.6411 18.4267 17.7934C18.4267 18.9457 19.3031 19.8708 20.3714 19.8708C21.4576 19.8708 22.316 18.9457 22.316 17.7934C22.316 16.6411 21.4396 15.716 20.3714 15.716ZM13.4151 15.716C12.3289 15.716 11.4705 16.6411 11.4705 17.7934C11.4705 18.9457 12.3469 19.8708 13.4151 19.8708C14.5014 19.8708 15.3598 18.9457 15.3598 17.7934C15.3778 16.6426 14.5014 15.716 13.4151 15.716Z" fill="#7289DA"/>
<path d="M29.6348 0H4.09473C1.94029 0 0.187378 1.73732 0.187378 3.87258V29.1854C0.187378 31.3207 1.94029 33.058 4.09473 33.058H25.708L24.6982 29.6012L27.1373 31.83L29.443 33.9267L33.5601 37.4592V3.87258C33.5422 1.73732 31.7878 0 29.6348 0ZM22.2771 24.462C22.2771 24.462 21.5909 23.6498 21.0186 22.9504C23.5161 22.251 24.469 20.7216 24.469 20.7216C23.6869 21.2309 22.9438 21.5902 22.2771 21.8367C21.3242 22.2332 20.4088 22.4797 19.5129 22.649C17.6835 22.989 16.0055 22.894 14.5762 22.6297C13.49 22.4218 12.5566 22.1382 11.7746 21.8174C11.3356 21.6482 10.8592 21.4403 10.3827 21.1745C10.3258 21.1374 10.2689 21.1181 10.2119 21.0794C10.1745 21.0601 10.155 21.0423 10.1355 21.0423C9.79244 20.8537 9.60217 20.7216 9.60217 20.7216C9.60217 20.7216 10.5176 22.2139 12.9372 22.9311C12.3649 23.6483 11.6607 24.4798 11.6607 24.4798C7.44923 24.3477 5.84764 21.6274 5.84764 21.6274C5.84764 15.6017 8.59237 10.709 8.59237 10.709C11.3371 8.68956 13.929 8.74598 13.929 8.74598L14.1193 8.97317C10.6884 9.93686 9.12574 11.4292 9.12574 11.4292C9.12574 11.4292 9.54524 11.202 10.2509 10.9006C12.29 10.0126 13.911 9.7854 14.5777 9.71116C14.6916 9.69185 14.7875 9.67404 14.9014 9.67404C16.064 9.52258 17.3794 9.48545 18.7518 9.63691C20.5631 9.8448 22.5063 10.3734 24.4884 11.4321C24.4884 11.4321 22.9827 10.0156 19.7421 9.05187L20.0088 8.74895C20.0088 8.74895 22.6202 8.69252 25.3454 10.7135C25.3454 10.7135 28.0902 15.6062 28.0902 21.6318C28.0902 21.6096 26.4901 24.3299 22.2771 24.462Z" fill="#7289DA"/>
</g>
<defs>
<clipPath id="clip0">
<rect width="33.3728" height="37.4592" fill="white" transform="translate(0.187378)"/>
</clipPath>
</defs>
</svg>
