<svg width="408" height="408" viewBox="0 0 408 408" fill="none" xmlns="http://www.w3.org/2000/svg">
<path d="M351.013 45.4614L223.593 140.098L247.157 84.2637L351.013 45.4614Z" fill="#E2761B" stroke="#E2761B" stroke-linecap="round" stroke-linejoin="round"/>
<path d="M56.8588 45.4614L183.254 140.994L160.844 84.2637L56.8588 45.4614Z" fill="#E4761B" stroke="#E4761B" stroke-linecap="round" stroke-linejoin="round"/>
<path d="M305.167 264.829L271.231 316.821L343.842 336.799L364.715 265.981L305.167 264.829Z" fill="#E4761B" stroke="#E4761B" stroke-linecap="round" stroke-linejoin="round"/>
<path d="M43.4124 265.981L64.1582 336.799L136.768 316.821L102.832 264.829L43.4124 265.981Z" fill="#E4761B" stroke="#E4761B" stroke-linecap="round" stroke-linejoin="round"/>
<path d="M132.67 176.979L112.437 207.586L184.535 210.787L181.974 133.311L132.67 176.979Z" fill="#E4761B" stroke="#E4761B" stroke-linecap="round" stroke-linejoin="round"/>
<path d="M275.201 176.979L225.258 132.414L223.593 210.787L295.563 207.586L275.201 176.979Z" fill="#E4761B" stroke="#E4761B" stroke-linecap="round" stroke-linejoin="round"/>
<path d="M136.768 316.821L180.053 295.691L142.659 266.494L136.768 316.821Z" fill="#E4761B" stroke="#E4761B" stroke-linecap="round" stroke-linejoin="round"/>
<path d="M227.819 295.691L271.232 316.821L265.213 266.494L227.819 295.691Z" fill="#E4761B" stroke="#E4761B" stroke-linecap="round" stroke-linejoin="round"/>
<path d="M271.232 316.821L227.819 295.691L231.277 323.992L230.893 335.902L271.232 316.821Z" fill="#D7C1B3" stroke="#D7C1B3" stroke-linecap="round" stroke-linejoin="round"/>
<path d="M136.768 316.821L177.107 335.902L176.851 323.992L180.053 295.691L136.768 316.821Z" fill="#D7C1B3" stroke="#D7C1B3" stroke-linecap="round" stroke-linejoin="round"/>
<path d="M177.748 247.797L141.635 237.168L167.119 225.514L177.748 247.797Z" fill="#233447" stroke="#233447" stroke-linecap="round" stroke-linejoin="round"/>
<path d="M230.125 247.797L240.754 225.514L266.366 237.168L230.125 247.797Z" fill="#233447" stroke="#233447" stroke-linecap="round" stroke-linejoin="round"/>
<path d="M136.768 316.821L142.915 264.829L102.832 265.981L136.768 316.821Z" fill="#CD6116" stroke="#CD6116" stroke-linecap="round" stroke-linejoin="round"/>
<path d="M265.085 264.829L271.231 316.821L305.168 265.981L265.085 264.829Z" fill="#CD6116" stroke="#CD6116" stroke-linecap="round" stroke-linejoin="round"/>
<path d="M295.563 207.586L223.593 210.787L230.252 247.797L240.881 225.514L266.493 237.168L295.563 207.586Z" fill="#CD6116" stroke="#CD6116" stroke-linecap="round" stroke-linejoin="round"/>
<path d="M141.634 237.168L167.246 225.514L177.747 247.797L184.535 210.787L112.437 207.586L141.634 237.168Z" fill="#CD6116" stroke="#CD6116" stroke-linecap="round" stroke-linejoin="round"/>
<path d="M112.437 207.586L142.659 266.493L141.635 237.168L112.437 207.586Z" fill="#E4751F" stroke="#E4751F" stroke-linecap="round" stroke-linejoin="round"/>
<path d="M266.493 237.168L265.212 266.493L295.563 207.586L266.493 237.168Z" fill="#E4751F" stroke="#E4751F" stroke-linecap="round" stroke-linejoin="round"/>
<path d="M184.535 210.787L177.748 247.797L186.2 291.465L188.121 233.966L184.535 210.787Z" fill="#E4751F" stroke="#E4751F" stroke-linecap="round" stroke-linejoin="round"/>
<path d="M223.593 210.787L220.136 233.838L221.672 291.465L230.252 247.797L223.593 210.787Z" fill="#E4751F" stroke="#E4751F" stroke-linecap="round" stroke-linejoin="round"/>
<path d="M230.252 247.797L221.672 291.465L227.819 295.691L265.213 266.493L266.493 237.168L230.252 247.797Z" fill="#F6851B" stroke="#F6851B" stroke-linecap="round" stroke-linejoin="round"/>
<path d="M141.635 237.168L142.659 266.493L180.053 295.691L186.2 291.465L177.748 247.797L141.635 237.168Z" fill="#F6851B" stroke="#F6851B" stroke-linecap="round" stroke-linejoin="round"/>
<path d="M230.892 335.902L231.277 323.992L228.075 321.175H179.796L176.851 323.992L177.107 335.902L136.768 316.821L150.855 328.346L179.412 348.196H228.459L257.145 328.346L271.231 316.821L230.892 335.902Z" fill="#C0AD9E" stroke="#C0AD9E" stroke-linecap="round" stroke-linejoin="round"/>
<path d="M227.819 295.691L221.672 291.465H186.2L180.053 295.691L176.851 323.993L179.797 321.175H228.075L231.277 323.993L227.819 295.691Z" fill="#161616" stroke="#161616" stroke-linecap="round" stroke-linejoin="round"/>
<path d="M356.392 146.245L367.277 93.9963L351.013 45.4614L227.819 136.896L275.201 176.979L342.177 196.573L357.032 179.284L350.629 174.674L360.874 165.326L352.934 159.179L363.179 151.367L356.392 146.245Z" fill="#763D16" stroke="#763D16" stroke-linecap="round" stroke-linejoin="round"/>
<path d="M40.7231 93.9963L51.6082 146.245L44.693 151.367L54.9378 159.179L47.1261 165.326L57.3709 174.674L50.9679 179.284L65.6948 196.573L132.67 176.979L180.053 136.896L56.8587 45.4614L40.7231 93.9963Z" fill="#763D16" stroke="#763D16" stroke-linecap="round" stroke-linejoin="round"/>
<path d="M342.177 196.572L275.202 176.979L295.563 207.586L265.213 266.493L305.168 265.981H364.716L342.177 196.572Z" fill="#F6851B" stroke="#F6851B" stroke-linecap="round" stroke-linejoin="round"/>
<path d="M132.67 176.979L65.6949 196.572L43.4124 265.981H102.832L142.659 266.493L112.437 207.586L132.67 176.979Z" fill="#F6851B" stroke="#F6851B" stroke-linecap="round" stroke-linejoin="round"/>
<path d="M223.593 210.787L227.819 136.896L247.284 84.2637H160.844L180.053 136.896L184.535 210.787L186.072 234.094L186.2 291.465H221.672L221.928 234.094L223.593 210.787Z" fill="#F6851B" stroke="#F6851B" stroke-linecap="round" stroke-linejoin="round"/>
</svg>
