<svg width="35" height="35" viewBox="0 0 35 35" fill="none" xmlns="http://www.w3.org/2000/svg">
<g clip-path="url(#clip0)">
<path d="M17.0332 0C9.92432 0 7.84516 0.00764602 7.44156 0.0412885C5.98309 0.162096 5.07499 0.393005 4.08586 0.885409C3.32299 1.26465 2.72218 1.70353 2.12901 2.31827C1.04968 3.43918 0.395357 4.81852 0.158394 6.45936C0.0437349 7.25607 0.0101015 7.41817 0.00245756 11.4859C-0.000600025 12.8423 0.00245756 14.6268 0.00245756 17.02C0.00245756 24.1247 0.0101015 26.2029 0.0437349 26.6066C0.161452 28.0273 0.384656 28.9203 0.855523 29.8975C1.75598 31.7677 3.4774 33.1715 5.50458 33.696C6.2063 33.8765 6.98139 33.9759 7.97664 34.0233C8.39858 34.0416 12.696 34.0554 16.9965 34.0554C21.297 34.0554 25.5975 34.0508 26.0087 34.0294C27.1614 33.9759 27.8311 33.8856 28.5695 33.6945C30.6104 33.1684 32.2997 31.7845 33.2185 29.8883C33.6802 28.9341 33.9156 28.0074 34.0211 26.6617C34.0441 26.3681 34.0532 21.6902 34.0532 17.0185C34.0532 12.3453 34.0425 7.67661 34.0196 7.383C33.9126 6.01589 33.6772 5.09531 33.2002 4.12426C32.8088 3.32908 32.3731 2.73422 31.7432 2.12712C30.6165 1.05056 29.2391 0.396064 27.5971 0.159037C26.8022 0.0443469 26.6432 0.0107044 22.5735 0.00305841H17.0332V0Z" fill="url(#paint0_radial)"/>
<path d="M17.0332 0C9.92432 0 7.84516 0.00764602 7.44156 0.0412885C5.98309 0.162096 5.07499 0.393005 4.08586 0.885409C3.32299 1.26465 2.72218 1.70353 2.12901 2.31827C1.04968 3.43918 0.395357 4.81852 0.158394 6.45936C0.0437349 7.25607 0.0101015 7.41817 0.00245756 11.4859C-0.000600025 12.8423 0.00245756 14.6268 0.00245756 17.02C0.00245756 24.1247 0.0101015 26.2029 0.0437349 26.6066C0.161452 28.0273 0.384656 28.9203 0.855523 29.8975C1.75598 31.7677 3.4774 33.1715 5.50458 33.696C6.2063 33.8765 6.98139 33.9759 7.97664 34.0233C8.39858 34.0416 12.696 34.0554 16.9965 34.0554C21.297 34.0554 25.5975 34.0508 26.0087 34.0294C27.1614 33.9759 27.8311 33.8856 28.5695 33.6945C30.6104 33.1684 32.2997 31.7845 33.2185 29.8883C33.6802 28.9341 33.9156 28.0074 34.0211 26.6617C34.0441 26.3681 34.0532 21.6902 34.0532 17.0185C34.0532 12.3453 34.0425 7.67661 34.0196 7.383C33.9126 6.01589 33.6772 5.09531 33.2002 4.12426C32.8088 3.32908 32.3731 2.73422 31.7432 2.12712C30.6165 1.05056 29.2391 0.396064 27.5971 0.159037C26.8022 0.0443469 26.6432 0.0107044 22.5735 0.00305841H17.0332V0Z" fill="url(#paint1_radial)"/>
<path d="M17.0246 4.45304C13.6108 4.45304 13.1812 4.46834 11.8405 4.5295C10.5028 4.59067 9.58859 4.80323 8.78903 5.11366C7.96195 5.43479 7.26024 5.8645 6.56158 6.56334C5.86292 7.26219 5.43333 7.9641 5.11076 8.7914C4.79888 9.59117 4.58638 10.5056 4.52676 11.8437C4.46713 13.1848 4.45032 13.6145 4.45032 17.0292C4.45032 20.4439 4.46561 20.8721 4.52676 22.2132C4.58791 23.5513 4.80041 24.4657 5.11076 25.2655C5.4318 26.0928 5.86139 26.7947 6.56005 27.4936C7.25871 28.1924 7.96042 28.6236 8.78597 28.9448C9.58553 29.2552 10.4997 29.4678 11.8374 29.5289C13.1782 29.5901 13.6063 29.6054 17.02 29.6054C20.4338 29.6054 20.8619 29.5901 22.2026 29.5289C23.5403 29.4678 24.4561 29.2552 25.2556 28.9448C26.0827 28.6236 26.7829 28.1924 27.4816 27.4936C28.1802 26.7947 28.6098 26.0928 28.9324 25.2655C29.2412 24.4657 29.4537 23.5513 29.5164 22.2132C29.576 20.8721 29.5928 20.4439 29.5928 17.0292C29.5928 13.6145 29.5775 13.1848 29.5164 11.8437C29.4537 10.5056 29.2412 9.59117 28.9324 8.7914C28.6098 7.9641 28.1802 7.26219 27.4816 6.56334C26.7829 5.8645 26.0827 5.43479 25.2556 5.11366C24.4546 4.80323 23.5403 4.59067 22.2011 4.5295C20.8604 4.46834 20.4338 4.45304 17.0185 4.45304H17.0246ZM15.8979 6.71932C16.2327 6.71932 16.6057 6.71932 17.0262 6.71932C20.3834 6.71932 20.7809 6.73156 22.1063 6.7912C23.3324 6.84778 23.9974 7.05269 24.4408 7.22396C25.0279 7.45181 25.4452 7.72401 25.8855 8.16442C26.3258 8.60483 26.5979 9.02383 26.8257 9.61105C26.9985 10.0545 27.2033 10.7197 27.2584 11.9446C27.318 13.2704 27.3317 13.668 27.3317 17.0246C27.3317 20.3812 27.318 20.7788 27.2584 22.1046C27.2018 23.3311 26.9969 23.9963 26.8257 24.4382C26.5979 25.0254 26.3243 25.4429 25.8855 25.8833C25.4452 26.3237 25.0279 26.5959 24.4408 26.8238C23.9974 26.9966 23.3324 27.2015 22.1063 27.2565C20.7809 27.3162 20.3834 27.3299 17.0262 27.3299C13.6689 27.3299 13.2714 27.3162 11.946 27.2565C10.7199 27.2 10.0549 26.995 9.61152 26.8222C9.02446 26.5944 8.60557 26.3222 8.16528 25.8818C7.72499 25.4414 7.45286 25.0239 7.22507 24.4367C7.05232 23.9932 6.84746 23.328 6.79243 22.1031C6.7328 20.7773 6.72057 20.3797 6.72057 17.0216C6.72057 13.6634 6.7328 13.2674 6.79243 11.9416C6.84899 10.7151 7.05385 10.0499 7.22507 9.60646C7.45286 9.01925 7.72652 8.60024 8.16528 8.15983C8.60557 7.71942 9.02446 7.44723 9.61152 7.21937C10.0549 7.04657 10.7199 6.84166 11.946 6.78508C13.1063 6.73309 13.5558 6.71627 15.8979 6.71474V6.71932ZM23.736 8.80822C22.9028 8.80822 22.2271 9.48259 22.2271 10.316C22.2271 11.1494 22.9028 11.8253 23.736 11.8253C24.5692 11.8253 25.2449 11.1494 25.2449 10.316C25.2449 9.48259 24.5692 8.80669 23.736 8.80822ZM17.0246 10.5714C13.4595 10.5714 10.5685 13.4631 10.5685 17.0292C10.5685 20.5953 13.4595 23.4855 17.0246 23.4855C20.5898 23.4855 23.4792 20.5953 23.4792 17.0292C23.4792 13.4631 20.5898 10.5714 17.0246 10.5714ZM17.0246 12.8377C19.3392 12.8377 21.215 14.714 21.215 17.0292C21.215 19.3444 19.3392 21.2208 17.0246 21.2208C14.71 21.2208 12.8342 19.3444 12.8342 17.0292C12.8342 14.714 14.71 12.8377 17.0246 12.8377Z" fill="white"/>
</g>
<defs>
<radialGradient id="paint0_radial" cx="0" cy="0" r="1" gradientUnits="userSpaceOnUse" gradientTransform="translate(9.04672 36.6774) rotate(-90) scale(33.7508 31.3907)">
<stop stop-color="#FFDD55"/>
<stop offset="0.1" stop-color="#FFDD55"/>
<stop offset="0.5" stop-color="#FF543E"/>
<stop offset="1" stop-color="#C837AB"/>
</radialGradient>
<radialGradient id="paint1_radial" cx="0" cy="0" r="1" gradientUnits="userSpaceOnUse" gradientTransform="translate(-5.7067 2.45218) rotate(78.6829) scale(15.0861 62.1879)">
<stop stop-color="#3771C8"/>
<stop offset="0.128" stop-color="#3771C8"/>
<stop offset="1" stop-color="#6600FF" stop-opacity="0"/>
</radialGradient>
<clipPath id="clip0">
<rect width="34.0538" height="34.0538" fill="white"/>
</clipPath>
</defs>
</svg>
