<svg width="43" height="35" viewBox="0 0 43 35" fill="none" xmlns="http://www.w3.org/2000/svg">
<g clip-path="url(#clip0)">
<path d="M42.691 4.03146C41.1372 4.71565 39.4679 5.17723 37.7145 5.38511C39.5025 4.32118 40.8766 2.6369 41.5232 0.628535C39.8489 1.6139 37.9949 2.32918 36.0221 2.71547C34.4419 1.04429 32.192 0 29.6997 0C24.9145 0 21.0366 3.84978 21.0366 8.59653C21.0366 9.27089 21.1141 9.92725 21.2609 10.5558C14.0609 10.1973 7.67742 6.77476 3.40361 1.57297C2.65805 2.84314 2.23083 4.31954 2.23083 5.89415C2.23083 8.87642 3.7599 11.5084 6.08567 13.0503C4.66547 13.0061 3.32939 12.6182 2.16155 11.9749C2.16155 12.0109 2.16155 12.0469 2.16155 12.0829C2.16155 16.2486 5.14711 19.7236 9.11082 20.5125C8.3834 20.7089 7.61804 20.8137 6.82794 20.8137C6.27041 20.8137 5.72773 20.7597 5.19825 20.6598C6.3001 24.0758 9.5001 26.5605 13.2906 26.6309C10.3265 28.9372 6.59041 30.3105 2.53104 30.3105C1.83165 30.3105 1.14217 30.2695 0.464233 30.191C4.29763 32.6298 8.85185 34.0538 13.7442 34.0538C29.6799 34.0538 38.3924 20.9544 38.3924 9.59498C38.3924 9.22179 38.3842 8.85187 38.3677 8.48359C40.0601 7.26908 41.5298 5.75503 42.691 4.03146Z" fill="#55ACEE"/>
</g>
<defs>
<clipPath id="clip0">
<rect width="42.2268" height="34.0538" fill="white" transform="translate(0.464233)"/>
</clipPath>
</defs>
</svg>
